# Blender v2.79 (sub 0) OBJ File: ''
# www.blender.org
mtllib Spike.mtl
o Cone_Cone.045
v -0.000000 0.984955 -0.250000
v -0.000000 3.000000 0.000001
v 0.176774 0.984955 -0.176774
v 0.250000 0.984955 0.000000
v 0.176774 0.984955 0.176774
v -0.000000 0.984955 0.250000
v -0.176774 0.984955 0.176774
v -0.250000 0.984955 0.000000
v -0.176774 0.984955 -0.176774
v -0.000000 -3.000000 -0.250000
v -0.176774 -3.000000 -0.176774
v 0.176774 -3.000000 -0.176774
v 0.250000 -3.000000 -0.000000
v 0.176774 -3.000000 0.176773
v -0.000000 -3.000000 0.250000
v -0.176774 -3.000000 0.176773
v -0.250000 -3.000000 -0.000000
vt 0.036953 0.758963
vt 0.526143 0.616809
vt 0.052506 0.804378
vt 0.072264 0.848128
vt 0.096053 0.889824
vt 0.123661 0.929095
vt 0.154843 0.965593
vt 0.016717 0.616809
vt 0.018979 0.664760
vt 0.025744 0.712286
vt 0.999884 0.096125
vt 0.999884 0.144129
vt 0.000116 0.144131
vt 0.000116 0.096126
vt 0.745241 0.582812
vt 0.793246 0.582812
vt 0.827191 0.616755
vt 0.827191 0.664760
vt 0.793248 0.698706
vt 0.745244 0.698706
vt 0.711298 0.664763
vt 0.711298 0.616758
vt 0.999884 0.048120
vt 0.000116 0.048121
vt 0.999884 0.000116
vt 0.000116 0.000116
vt 0.999884 0.192134
vt 0.000116 0.192136
vt 0.999884 0.336148
vt 0.999884 0.384152
vt 0.000117 0.384156
vt 0.000116 0.336151
vt 0.999884 0.288143
vt 0.000116 0.288146
vt 0.999884 0.240139
vt 0.000116 0.240141
vn 0.3802 0.1139 -0.9179
vn 0.9179 0.1139 -0.3802
vn 0.9179 0.1139 0.3802
vn 0.3802 0.1139 0.9179
vn -0.3802 0.1139 0.9179
vn -0.9179 0.1139 0.3802
vn -0.9179 0.1139 -0.3802
vn -0.3802 0.1139 -0.9179
vn -0.3827 0.0000 -0.9239
vn 0.0000 -1.0000 -0.0000
vn -0.9239 0.0000 -0.3827
vn -0.9239 -0.0000 0.3827
vn 0.3827 0.0000 -0.9239
vn -0.3827 -0.0000 0.9239
vn 0.3827 -0.0000 0.9239
vn 0.9239 -0.0000 0.3827
vn 0.9239 0.0000 -0.3827
usemtl None
s 1
f 1/1/1 2/2/1 3/3/1
f 3/3/2 2/2/2 4/4/2
f 4/4/3 2/2/3 5/5/3
f 5/5/4 2/2/4 6/6/4
f 6/6/5 2/2/5 7/7/5
f 7/8/6 2/2/6 8/9/6
f 8/9/7 2/2/7 9/10/7
f 9/10/8 2/2/8 1/1/8
f 9/11/9 1/12/9 10/13/9 11/14/9
f 10/15/10 12/16/10 13/17/10 14/18/10 15/19/10 16/20/10 17/21/10 11/22/10
f 8/23/11 9/11/11 11/14/11 17/24/11
f 7/25/12 8/23/12 17/24/12 16/26/12
f 1/12/13 3/27/13 12/28/13 10/13/13
f 6/29/14 7/30/14 16/31/14 15/32/14
f 5/33/15 6/29/15 15/32/15 14/34/15
f 4/35/16 5/33/16 14/34/16 13/36/16
f 3/27/17 4/35/17 13/36/17 12/28/17
