# Blender v2.79 (sub 0) OBJ File: ''
# www.blender.org
mtllib untitled.mtl
o Plane
v -65.910706 1.200715 -10.831546
v -11.778654 -2.055357 -28.410662
v -65.910706 -0.898070 -41.091610
v -11.778654 -2.055357 -54.701244
v -95.852623 -0.045243 1.773372
v -101.621658 -0.045243 -36.246712
v -252.145660 -3.276739 22.373825
v -257.914673 -3.276739 -13.377993
v -37.230694 -1.953576 -23.872164
v -37.230694 -1.953576 -53.411049
v 26.214909 -1.177954 -27.276525
v 26.214909 -1.177954 -53.510399
v 58.764614 1.015617 -23.307049
v 62.507263 1.015617 -47.272648
v 85.189995 4.672189 -15.084562
v 95.964287 4.672189 -27.481976
v 88.308868 7.203270 -2.609062
v 105.887985 7.203270 -12.171134
v 82.921715 11.467222 18.939528
v 105.887985 11.467222 23.270630
v 41.848991 12.553398 -12.255038
v 74.075447 10.963884 33.229649
v 95.000267 10.963884 45.046040
v 61.359081 10.288214 34.596996
v 66.285873 10.288214 54.070564
v 44.583317 12.391834 30.580254
v 31.080389 12.391834 50.998936
v 31.965591 13.743093 12.069643
v 7.862555 13.743093 16.346916
v 17.745960 12.553398 -16.315430
v 34.188324 15.446161 -62.322269
v 10.085290 15.446161 -66.382668
v 52.153038 13.347588 -83.553299
v 33.766060 13.347588 -101.903816
v 92.915222 12.885546 -88.325729
v 91.809845 12.885546 -114.279556
v 125.823692 16.211687 -84.889778
v 140.559204 16.211687 -106.283409
v 155.220490 15.312450 -52.226643
v 169.955994 15.312450 -73.620285
v 164.012573 15.789110 -38.105301
v 189.989929 15.789110 -38.123173
v 149.904633 17.745489 24.558304
v 173.003571 17.745489 36.443722
v 157.060242 15.475018 -7.224907
v 181.619080 15.475018 -1.376882
v 140.548035 17.745489 42.420948
v 160.244537 17.745489 57.708778
v -157.089355 0.498270 9.844782
v -162.858398 0.498270 -27.286579
v -65.941620 4.261786 -10.882216
v -11.809570 1.005714 -28.461332
v -65.941620 2.163002 -41.142281
v -11.809570 1.005714 -54.751915
v -95.883537 3.015829 1.722701
v -101.652573 3.015829 -36.297386
v -252.176575 -0.215667 22.323154
v -257.945587 -0.215667 -13.428663
v -37.261608 1.107496 -23.922834
v -37.261608 1.107496 -53.461720
v 26.183994 1.883117 -27.327196
v 26.183994 1.883117 -53.561069
v 58.733700 4.076689 -23.357719
v 62.476349 4.076689 -47.323318
v 85.159081 7.733260 -15.135233
v 95.933372 7.733260 -27.532646
v 88.277954 10.264341 -2.659733
v 105.857071 10.264341 -12.221805
v 82.890800 14.528294 18.888857
v 105.857071 14.528294 23.219959
v 41.818077 15.614470 -12.305709
v 74.044533 14.024956 33.178978
v 94.969353 14.024956 44.995369
v 61.328167 13.349285 34.546326
v 66.254959 13.349285 54.019897
v 44.552402 15.452906 30.529583
v 31.049475 15.452906 50.948265
v 31.934677 16.804165 12.018972
v 7.831640 16.804165 16.296246
v 17.715048 15.614470 -16.366100
v 34.157406 18.507233 -62.372940
v 10.054376 18.507233 -66.433334
v 52.122124 16.408659 -83.603973
v 33.735146 16.408659 -101.954483
v 92.884308 15.946617 -88.376396
v 91.778931 15.946617 -114.330223
v 125.792778 19.272758 -84.940445
v 140.528290 19.272758 -106.334084
v 155.189575 18.373522 -52.277313
v 169.925079 18.373522 -73.670952
v 163.981659 18.850182 -38.155972
v 189.958984 18.850182 -38.173843
v 149.873718 20.806561 24.507633
v 172.972626 20.806561 36.393051
v 157.029327 18.536089 -7.275578
v 181.588165 18.536089 -1.427552
v 140.517120 20.806561 42.370277
v 160.213623 20.806561 57.658112
v -157.120300 3.559341 9.794111
v -162.889313 3.559341 -27.337250
vn -0.0040 -1.0000 0.0000
vn 0.0138 -0.9995 0.0296
vn 0.0388 -0.9992 -0.0061
vn -0.0577 -0.9977 0.0350
vn 0.0231 -0.9997 0.0000
vn 0.0629 -0.9980 0.0047
vn 0.1023 -0.9939 0.0408
vn 0.1020 -0.9860 0.1317
vn 0.0193 -0.9885 0.1497
vn 0.0085 -0.9997 -0.0232
vn 0.0270 -0.9994 -0.0223
vn -0.0784 -0.9968 -0.0169
vn -0.0231 -0.9991 -0.0352
vn 0.0002 -0.9991 0.0418
vn 0.0100 -0.9982 -0.0592
vn -0.0281 -0.9982 0.0532
vn -0.0087 -1.0000 0.0038
vn 0.0781 -0.9967 0.0225
vn -0.0173 -0.9998 -0.0119
vn 0.0077 -0.9999 0.0147
vn -0.0223 -0.9979 0.0600
vn 0.0010 -1.0000 -0.0091
vn 0.0000 -1.0000 0.0000
vn -0.0087 -1.0000 0.0013
vn 0.0040 1.0000 0.0000
vn -0.0138 0.9995 -0.0296
vn -0.0388 0.9992 0.0061
vn 0.0577 0.9977 -0.0350
vn -0.0231 0.9997 0.0000
vn -0.0629 0.9980 -0.0047
vn -0.1023 0.9939 -0.0408
vn -0.1020 0.9860 -0.1317
vn -0.0193 0.9885 -0.1497
vn -0.0085 0.9997 0.0232
vn -0.0270 0.9994 0.0223
vn 0.0784 0.9968 0.0169
vn 0.0231 0.9991 0.0352
vn -0.0002 0.9991 -0.0418
vn -0.0100 0.9982 0.0592
vn 0.0281 0.9982 -0.0532
vn 0.0087 1.0000 -0.0038
vn -0.0781 0.9967 -0.0225
vn 0.0173 0.9998 0.0119
vn -0.0077 0.9999 -0.0147
vn 0.0223 0.9979 -0.0600
vn -0.0010 1.0000 0.0091
vn 0.0000 1.0000 0.0000
vn 0.0087 1.0000 -0.0013
vn -0.1441 -0.0178 -0.9894
vn 0.2312 -0.0138 -0.9728
vn 0.9749 0.0135 0.2222
vn -0.9699 -0.0058 0.2436
vn 0.1165 0.0176 0.9930
vn 0.4156 0.0192 0.9093
vn -0.0860 0.0156 0.9962
vn -0.9755 -0.0135 -0.2198
vn 0.8392 -0.0005 -0.5438
vn -0.2086 -0.0183 -0.9778
vn -0.0507 -0.0170 -0.9986
vn 0.9751 0.0135 0.2213
vn 0.8263 -0.0010 -0.5633
vn -0.9707 -0.0138 -0.2399
vn -0.1054 0.0154 0.9943
vn -0.8307 0.0008 0.5567
vn -0.6131 0.0069 0.7899
vn 0.9999 0.0101 -0.0012
vn 0.1628 -0.0147 -0.9865
vn -0.0302 0.0162 0.9994
vn 0.9266 0.0156 0.3757
vn -0.8857 -0.0166 -0.4639
vn 0.1756 0.0181 0.9843
vn 0.0317 -0.0162 -0.9994
vn -0.9572 -0.0145 -0.2891
vn 0.8574 0.0172 0.5144
vn -0.8499 -0.0173 -0.5267
vn -0.7432 0.0036 0.6690
vn 0.1300 0.0177 0.9914
vn -0.3952 -0.0192 -0.9184
vn 0.8942 0.0164 0.4475
vn 0.7432 -0.0036 -0.6690
vn -0.1220 0.0152 0.9924
vn 0.9885 0.0075 -0.1508
vn -0.1449 -0.0178 -0.9893
vn 0.1702 -0.0146 -0.9853
vn -0.9885 -0.0075 0.1508
vn 0.3873 0.0192 0.9218
vn -0.8489 0.0002 0.5285
vn -0.1348 -0.0178 -0.9907
vn -0.1060 -0.0175 -0.9942
vn 0.8709 0.0007 -0.4915
vn -0.2987 0.0128 0.9543
vn 0.7642 0.0184 0.6448
vn -0.9872 -0.0073 0.1593
vn 0.2994 0.0188 0.9540
vn 0.5098 -0.0091 -0.8602
vn -0.8324 -0.0176 -0.5539
vn 0.1308 0.0177 0.9912
vn -0.9757 -0.0135 -0.2187
usemtl None
s off
f 9//1 10//1 4//1 2//1
f 1//2 5//2 6//2 3//2
f 49//3 7//3 8//3 50//3
f 1//4 3//4 10//4 9//4
f 4//5 12//5 11//5 2//5
f 12//6 14//6 13//6 11//6
f 14//7 16//7 15//7 13//7
f 16//8 18//8 17//8 15//8
f 18//9 20//9 19//9 17//9
f 20//10 23//10 22//10 19//10
f 23//11 25//11 24//11 22//11
f 25//12 27//12 26//12 24//12
f 27//13 29//13 28//13 26//13
f 29//14 30//14 21//14 28//14
f 30//15 32//15 31//15 21//15
f 32//16 34//16 33//16 31//16
f 34//17 36//17 35//17 33//17
f 36//18 38//18 37//18 35//18
f 38//19 40//19 39//19 37//19
f 40//20 42//20 41//20 39//20
f 46//21 44//21 43//21 45//21
f 42//22 46//22 45//22 41//22
f 44//23 48//23 47//23 43//23
f 5//24 49//24 50//24 6//24
f 59//25 52//25 54//25 60//25
f 51//26 53//26 56//26 55//26
f 99//27 100//27 58//27 57//27
f 51//28 59//28 60//28 53//28
f 54//29 52//29 61//29 62//29
f 62//30 61//30 63//30 64//30
f 64//31 63//31 65//31 66//31
f 66//32 65//32 67//32 68//32
f 68//33 67//33 69//33 70//33
f 70//34 69//34 72//34 73//34
f 73//35 72//35 74//35 75//35
f 75//36 74//36 76//36 77//36
f 77//37 76//37 78//37 79//37
f 79//38 78//38 71//38 80//38
f 80//39 71//39 81//39 82//39
f 82//40 81//40 83//40 84//40
f 84//41 83//41 85//41 86//41
f 86//42 85//42 87//42 88//42
f 88//43 87//43 89//43 90//43
f 90//44 89//44 91//44 92//44
f 96//45 95//45 93//45 94//45
f 92//46 91//46 95//46 96//46
f 94//47 93//47 97//47 98//47
f 55//48 56//48 100//48 99//48
f 50//49 8//49 58//49 100//49
f 24//50 26//50 76//50 74//50
f 46//51 42//51 92//51 96//51
f 15//52 17//52 67//52 65//52
f 33//53 35//53 85//53 83//53
f 1//54 9//54 59//54 51//54
f 27//55 25//55 75//55 77//55
f 41//56 45//56 95//56 91//56
f 18//57 16//57 66//57 68//57
f 36//58 34//58 84//58 86//58
f 4//59 10//59 60//59 54//59
f 44//60 46//60 96//60 94//60
f 26//61 28//61 78//61 76//61
f 17//62 19//62 69//62 67//62
f 35//63 37//63 87//63 85//63
f 29//64 27//64 77//64 79//64
f 47//65 48//65 98//65 97//65
f 20//66 18//66 68//66 70//66
f 38//67 36//67 86//67 88//67
f 2//68 11//68 61//68 52//68
f 28//69 21//69 71//69 78//69
f 43//70 47//70 97//70 93//70
f 9//71 2//71 52//71 59//71
f 12//72 4//72 54//72 62//72
f 30//73 29//73 79//73 80//73
f 48//74 44//74 94//74 98//74
f 19//75 22//75 72//75 69//75
f 37//76 39//76 89//76 87//76
f 7//77 49//77 99//77 57//77
f 10//78 3//78 53//78 60//78
f 23//79 20//79 70//79 73//79
f 40//80 38//80 88//80 90//80
f 11//81 13//81 63//81 61//81
f 21//82 31//82 81//82 71//82
f 6//83 50//83 100//83 56//83
f 14//84 12//84 62//84 64//84
f 32//85 30//85 80//85 82//85
f 5//86 1//86 51//86 55//86
f 39//87 41//87 91//87 89//87
f 3//88 6//88 56//88 53//88
f 22//89 24//89 74//89 72//89
f 42//90 40//90 90//90 92//90
f 13//91 15//91 65//91 63//91
f 31//92 33//92 83//92 81//92
f 8//93 7//93 57//93 58//93
f 25//94 23//94 73//94 75//94
f 16//95 14//95 64//95 66//95
f 34//96 32//96 82//96 84//96
f 49//97 5//97 55//97 99//97
f 45//98 43//98 93//98 95//98
