# Blender v2.79 (sub 0) OBJ File: ''
# www.blender.org
mtllib Pillar1.mtl
o Circle
v -1.025881 -0.852502 1.970768
v -1.502584 -0.888921 2.024788
v -1.908453 -0.920231 2.252338
v -2.080667 -0.810615 2.700982
v -2.206689 -0.840669 3.182084
v -2.180425 -0.896643 3.626651
v -1.950360 -0.892229 3.976959
v -1.637166 -0.841430 4.197453
v -0.956257 -0.861078 4.342423
v -0.500078 -0.886805 4.265676
v -0.144183 -0.901378 4.032733
v 0.076611 -0.865849 3.620563
v 0.213474 -0.905293 3.137142
v 0.128543 -0.924034 2.651961
v -0.127350 -0.946032 2.241074
v -0.546965 -0.896176 2.023617
v -0.975266 9.332874 1.843214
v -1.414584 9.332874 2.022012
v -1.739007 9.332874 2.193261
v -2.033712 9.332919 2.641103
v -2.169212 9.370710 3.173666
v -2.047883 9.413658 3.581249
v -1.932354 9.377700 3.966849
v -1.585026 9.455266 4.294108
v -1.040377 9.349069 4.243570
v -0.590038 9.332874 4.163339
v -0.207057 9.367668 4.095272
v 0.191776 9.332874 3.541240
v 0.159776 9.332874 3.158557
v 0.100228 9.332874 2.775873
v 0.217087 9.441249 2.417870
v -0.303721 9.332874 1.980911
v 0.120376 4.333272 3.162321
v 0.002020 4.332580 3.592338
v -2.048684 4.335585 3.559887
v -2.190093 4.335952 3.141061
v 0.140476 4.331011 2.702599
v -1.742814 4.332978 3.868190
v -0.147710 4.331029 2.276436
v -1.394181 4.332176 4.061620
v -0.633538 4.332827 2.216715
v -1.032038 4.332913 4.175218
v -1.414584 4.332875 2.234677
v -1.031714 4.332861 2.157212
v -0.679173 4.331946 4.039869
v -1.739841 4.332882 2.451057
v -0.286705 4.332840 3.884562
v -2.043929 4.333813 2.746030
v 0.160035 6.823654 3.171336
v -1.907869 6.832203 3.377796
v -0.033715 6.829134 2.766013
v -1.615788 6.832725 3.755631
v -0.317067 6.832456 2.449482
v -1.416221 7.089124 4.032033
v -0.649217 6.832874 2.234677
v -1.033817 7.086713 4.205900
v -1.414584 6.832874 2.234677
v -0.731513 6.837306 3.954948
v -1.739007 6.832874 2.451450
v -0.313436 6.830310 3.872363
v -2.070474 6.831153 2.773293
v 0.076949 6.823437 3.620154
v -2.194602 6.828946 2.995055
v -1.031900 6.832874 2.158557
v 0.315141 1.804535 3.685469
v -2.201219 1.832439 3.166875
v -1.031440 1.832868 2.157772
v 0.501635 1.809129 3.286547
v -2.087549 1.831577 3.592463
v 0.374409 1.823044 2.713845
v -1.792542 1.831484 3.951984
v -0.125772 1.827992 2.225778
v -1.399897 1.827693 4.277465
v -0.576522 1.831516 2.118516
v -0.944449 1.819365 4.195226
v -1.414584 1.832875 2.234677
v -0.525202 1.818802 4.212647
v -1.749172 1.832875 2.444632
v -0.082289 1.807716 4.030306
v -2.025759 1.832875 2.748794
v 0.063938 8.082874 3.158557
v -1.978430 8.076537 3.471450
v -0.003897 8.082874 2.775873
v -1.730031 8.041546 3.821461
v -0.053854 8.137061 2.434660
v -1.460112 8.210628 4.107984
v -0.476469 8.082874 2.107794
v -1.030465 8.210095 4.205631
v -1.414584 8.082874 2.128345
v -0.606357 8.080613 4.153723
v -1.739007 8.082874 2.322356
v -0.251980 8.098113 4.007926
v -1.995104 8.082846 2.708552
v 0.041877 8.082874 3.541240
v -2.093805 8.077145 3.085319
v -1.003583 8.082874 2.000886
v -0.042445 5.582874 3.578948
v -2.142303 5.587561 3.053212
v -1.031900 5.582874 2.158557
v -0.027300 5.582892 3.158515
v -1.907420 5.583417 3.458937
v 0.022384 5.583944 2.709922
v -1.709428 5.584091 3.837320
v -0.142850 5.583729 2.322563
v -1.418599 5.710911 4.073860
v -0.644527 5.582876 2.230103
v -1.027838 5.713436 4.317214
v -1.414584 5.582874 2.234677
v -0.590416 5.584083 4.243525
v -1.739007 5.582874 2.451450
v -0.233042 5.582924 3.963402
v -1.970628 5.583274 2.774055
v 0.106931 3.084060 3.155534
v -2.063634 3.083096 3.585953
v 0.002591 3.082847 2.753537
v -1.827699 3.083230 3.935802
v -0.278272 3.082764 2.403598
v -1.410011 3.081108 4.103571
v -0.595924 3.080191 2.089539
v -1.013374 3.082999 3.969600
v -1.414572 3.082874 2.234647
v -0.649217 3.082875 4.081926
v -1.739007 3.082875 2.451450
v -0.321751 3.083330 3.868448
v -2.001060 3.082875 2.762879
v -0.008541 3.095529 3.603094
v -2.120221 3.082875 3.145068
v -0.999119 3.081132 2.063269
v 0.295742 0.460717 3.711454
v -2.246948 0.496980 3.181351
v -1.028661 0.490183 2.064270
v 0.436451 0.444557 3.213608
v -2.198343 0.469819 3.638720
v 0.313519 0.444953 2.659594
v -1.965127 0.474804 4.068078
v -0.126561 0.440980 2.233426
v -1.609894 0.500053 4.444031
v -0.561743 0.467670 2.071067
v -0.948593 0.484174 4.468223
v -1.458584 0.471977 2.129733
v -0.427929 0.469460 4.513083
v -1.828813 0.456322 2.348485
v 0.036304 0.447295 4.220175
v -2.053213 0.511130 2.724888
v 0.151617 9.226457 3.158557
v -2.041970 9.299824 3.571901
v 0.091363 9.226457 2.775873
v -1.915129 9.263947 3.954472
v 0.194020 9.330218 2.419299
v -1.574392 9.349305 4.278263
v -0.318428 9.226457 1.991714
v -1.039533 9.252103 4.240340
v -1.414584 9.226457 2.031065
v -0.591427 9.226264 4.162520
v -1.739007 9.226457 2.204252
v -0.210881 9.259585 4.087836
v -2.030426 9.226496 2.646845
v 0.179014 9.226457 3.541240
v -2.162792 9.260584 3.166145
v -0.977676 9.226457 1.856638
v 0.087045 -0.802679 3.624891
v -2.208606 -0.776971 3.182049
v -1.026014 -0.788564 1.975220
v 0.224092 -0.841015 3.140783
v -2.181279 -0.831573 3.627225
v 0.137351 -0.858845 2.652324
v -1.951063 -0.827133 3.981298
v -0.127312 -0.879984 2.240710
v -1.635867 -0.777550 4.209195
v -0.547669 -0.831231 2.025877
v -0.955892 -0.797019 4.348414
v -1.500489 -0.824116 2.029785
v -0.496642 -0.822221 4.277457
v -1.904661 -0.854680 2.256917
v -0.135588 -0.837155 4.041659
v -2.079360 -0.747675 2.702121
vt 0.186443 0.529971
vt 0.276241 0.524563
vt 0.365659 0.538250
vt 0.442832 0.582296
vt 0.487309 0.661228
vt 0.499294 0.752610
vt 0.469765 0.842094
vt 0.425269 0.917643
vt 0.356859 0.958297
vt 0.270896 0.969003
vt 0.144816 0.936430
vt 0.086812 0.893364
vt 0.046661 0.826064
vt 0.046661 0.742141
vt 0.073451 0.652916
vt 0.107656 0.567337
vt 0.862349 0.911922
vt 0.805480 0.940665
vt 0.712417 0.937395
vt 0.623146 0.902972
vt 0.577218 0.844642
vt 0.534211 0.789162
vt 0.519762 0.706435
vt 0.585132 0.635063
vt 0.641887 0.579389
vt 0.689977 0.531546
vt 0.808706 0.531546
vt 0.859603 0.574660
vt 0.907826 0.621562
vt 0.973547 0.639282
vt 0.979833 0.758693
vt 0.931836 0.867662
vt 0.149162 0.449926
vt 0.196911 0.456289
vt 0.195490 0.476408
vt 0.148023 0.470175
vt 0.690385 0.466336
vt 0.743400 0.471425
vt 0.744533 0.493031
vt 0.691653 0.487097
vt 0.245188 0.464410
vt 0.243265 0.484444
vt 0.793835 0.464039
vt 0.794497 0.485876
vt 0.288221 0.497053
vt 0.286257 0.518085
vt 0.852709 0.474305
vt 0.853789 0.494421
vt 0.370654 0.478736
vt 0.369744 0.498953
vt 0.915730 0.438404
vt 0.917587 0.456409
vt 0.453963 0.475761
vt 0.512378 0.470399
vt 0.512573 0.490566
vt 0.454090 0.495951
vt 0.970719 0.420314
vt 0.972912 0.439970
vt 0.558232 0.467564
vt 0.557937 0.487731
vt 0.018883 0.417869
vt 0.065575 0.437965
vt 0.063245 0.458220
vt 0.016522 0.437745
vt 0.623955 0.462760
vt 0.623972 0.482795
vt 0.584286 0.029655
vt 0.636702 0.029882
vt 0.637405 0.244160
vt 0.583806 0.243838
vt 0.075404 0.035186
vt 0.129430 0.030932
vt 0.135018 0.245560
vt 0.083621 0.247194
vt 0.531268 0.029085
vt 0.529042 0.243728
vt 0.025609 0.041225
vt 0.030839 0.247050
vt 0.480623 0.028437
vt 0.478042 0.243337
vt 0.858332 0.039386
vt 0.905653 0.040936
vt 0.896993 0.245783
vt 0.849332 0.248481
vt 0.370924 0.025757
vt 0.422644 0.027149
vt 0.426913 0.242574
vt 0.374103 0.242690
vt 0.806021 0.032525
vt 0.800733 0.244747
vt 0.311484 0.026932
vt 0.312216 0.245348
vt 0.748665 0.030651
vt 0.749547 0.243091
vt 0.249332 0.026193
vt 0.248643 0.244653
vt 0.694669 0.030155
vt 0.693727 0.242703
vt 0.192143 0.026778
vt 0.191225 0.244326
vt 0.647812 0.448490
vt 0.691965 0.448442
vt 0.690345 0.253365
vt 0.656918 0.251244
vt 0.145304 0.453553
vt 0.200541 0.451176
vt 0.195643 0.258755
vt 0.135846 0.262000
vt 0.594486 0.448197
vt 0.594587 0.248583
vt 0.088823 0.455333
vt 0.080791 0.264078
vt 0.542175 0.448352
vt 0.540783 0.247059
vt 0.917551 0.432554
vt 0.972451 0.454109
vt 0.969439 0.263873
vt 0.919180 0.223352
vt 0.437797 0.450520
vt 0.490044 0.449052
vt 0.486170 0.246469
vt 0.430996 0.247454
vt 0.859171 0.432534
vt 0.863261 0.219350
vt 0.371018 0.454422
vt 0.374801 0.250075
vt 0.810981 0.451945
vt 0.816444 0.257585
vt 0.315875 0.452954
vt 0.315089 0.253542
vt 0.754818 0.450254
vt 0.752914 0.254830
vt 0.256570 0.450944
vt 0.254252 0.255761
vt 0.158124 0.040106
vt 0.218462 0.036167
vt 0.215869 0.238654
vt 0.166642 0.243482
vt 0.688883 0.028529
vt 0.743968 0.025903
vt 0.740466 0.249444
vt 0.684448 0.247991
vt 0.284138 0.031849
vt 0.280773 0.239359
vt 0.801476 0.029786
vt 0.799809 0.251670
vt 0.355906 0.024615
vt 0.360860 0.242644
vt 0.860871 0.037555
vt 0.864817 0.252860
vt 0.412161 0.024828
vt 0.416715 0.246834
vt 0.937976 0.040888
vt 0.921984 0.261304
vt 0.468916 0.025367
vt 0.522155 0.019971
vt 0.523942 0.247232
vt 0.474217 0.247499
vt 1.002004 0.042342
vt 0.973844 0.266526
vt 0.575065 0.016945
vt 0.574471 0.247379
vt 0.026235 0.041366
vt 0.092168 0.037385
vt 0.105564 0.251629
vt 0.048365 0.264986
vt 0.628547 0.028492
vt 0.626970 0.247732
vt 0.707648 0.056378
vt 0.654984 0.052372
vt 0.192870 0.062613
vt 0.121154 0.067205
vt 0.592825 0.048084
vt 0.073785 0.077081
vt 0.542476 0.045311
vt 0.981328 0.074585
vt 0.929447 0.049475
vt 0.485236 0.042077
vt 0.413419 0.041175
vt 0.872422 0.042124
vt 0.341631 0.034935
vt 0.819206 0.065375
vt 0.296745 0.051055
vt 0.762042 0.057618
vt 0.244580 0.057362
vt 0.192110 0.458679
vt 0.136082 0.458418
vt 0.690358 0.459452
vt 0.627506 0.461483
vt 0.251415 0.456427
vt 0.746522 0.457558
vt 0.306559 0.454781
vt 0.794711 0.479312
vt 0.373338 0.459154
vt 0.853092 0.479289
vt 0.477716 0.461584
vt 0.425585 0.460799
vt 0.907991 0.455132
vt 0.530026 0.461757
vt 0.080845 0.455755
vt 0.024364 0.453760
vt 0.583352 0.461429
vt 0.234650 0.459566
vt 0.171937 0.463741
vt 0.737176 0.462961
vt 0.679210 0.462686
vt 0.291839 0.458977
vt 0.791173 0.463459
vt 0.353991 0.459721
vt 0.848528 0.465342
vt 0.413432 0.458540
vt 0.900840 0.472239
vt 0.523131 0.461233
vt 0.465151 0.459939
vt 0.948160 0.473797
vt 0.573775 0.461885
vt 0.117911 0.468018
vt 0.068116 0.474088
vt 0.626794 0.462457
vt 0.630433 0.042368
vt 0.691929 0.042073
vt 0.684660 0.243178
vt 0.624325 0.243142
vt 0.095755 0.048870
vt 0.154737 0.054878
vt 0.153902 0.254495
vt 0.087946 0.251835
vt 0.572154 0.021325
vt 0.570842 0.231854
vt 0.041650 0.045359
vt 0.022013 0.255727
vt 0.514981 0.026846
vt 0.517933 0.234812
vt 0.933513 0.050542
vt 0.991233 0.045103
vt 0.997782 0.256681
vt 0.933754 0.255259
vt 0.396754 0.033617
vt 0.456297 0.035768
vt 0.464693 0.240088
vt 0.407939 0.239561
vt 0.846653 0.052826
vt 0.856649 0.252001
vt 0.338249 0.031820
vt 0.351684 0.239353
vt 0.799081 0.041650
vt 0.797254 0.244407
vt 0.278314 0.041847
vt 0.279916 0.246423
vt 0.747197 0.037183
vt 0.739746 0.240611
vt 0.217097 0.048695
vt 0.214240 0.250644
vt 0.623313 0.236124
vt 0.675977 0.230950
vt 0.089483 0.216967
vt 0.161199 0.222898
vt 0.561154 0.241662
vt 0.042114 0.204211
vt 0.510806 0.245243
vt 0.897777 0.239865
vt 0.949658 0.207436
vt 0.381748 0.250585
vt 0.453565 0.249420
vt 0.840752 0.249360
vt 0.309961 0.258644
vt 0.787535 0.219330
vt 0.265074 0.237825
vt 0.730371 0.229349
vt 0.212909 0.229679
vt 0.154775 0.044510
vt 0.217267 0.038209
vt 0.692339 0.031883
vt 0.747603 0.026786
vt 0.278195 0.031293
vt 0.799189 0.031207
vt 0.337558 0.021282
vt 0.846169 0.042381
vt 0.396191 0.023242
vt 0.933403 0.040132
vt 0.455872 0.025526
vt 0.514830 0.016437
vt 0.990885 0.034502
vt 0.572217 0.010786
vt 0.042792 0.034743
vt 0.096224 0.038257
vt 0.630764 0.032290
vn -0.2631 -0.6366 -0.7249
vn -0.0155 -0.6342 -0.7729
vn 0.2163 -0.6593 -0.7201
vn 0.4933 -0.6832 -0.5384
vn 0.6566 -0.7082 -0.2594
vn 0.6847 -0.7278 0.0369
vn 0.6283 -0.7317 0.2642
vn 0.4931 -0.7343 0.4664
vn 0.2367 -0.7242 0.6477
vn -0.0294 -0.7124 0.7011
vn -0.3096 -0.6812 0.6634
vn -0.5253 -0.6953 0.4905
vn -0.7018 -0.6705 0.2406
vn -0.7458 -0.6633 -0.0613
vn -0.7457 -0.6214 -0.2402
vn -0.5776 -0.6384 -0.5087
vn -0.3083 0.6592 -0.6858
vn -0.5111 0.6253 -0.5897
vn -0.6958 0.6434 -0.3191
vn -0.7786 0.6268 0.0291
vn -0.7091 0.6746 0.2051
vn -0.7016 0.5545 0.4475
vn -0.2672 0.6167 0.7404
vn 0.0926 0.6507 0.7536
vn 0.1396 0.6710 0.7281
vn 0.4284 0.6263 0.6513
vn 0.7776 0.5940 0.2060
vn 0.7413 0.6639 -0.0978
vn 0.8350 0.5483 0.0465
vn 0.7709 0.5842 -0.2540
vn 0.3834 0.5687 -0.7277
vn -0.0626 0.5987 -0.7985
vn 0.9553 -0.0953 0.2798
vn 0.9910 -0.0884 -0.1008
vn -0.9979 -0.0601 0.0228
vn -0.9393 -0.1015 0.3277
vn 0.9936 -0.1121 -0.0161
vn -0.8094 -0.1572 0.5658
vn 0.9279 -0.1697 -0.3318
vn -0.3468 -0.1450 0.9266
vn 0.4347 -0.1448 -0.8889
vn 0.0739 -0.0573 0.9956
vn -0.0808 -0.1149 -0.9901
vn -0.4168 -0.0885 -0.9047
vn 0.2000 -0.0316 0.9793
vn -0.6763 -0.0713 -0.7331
vn 0.5617 -0.0673 0.8246
vn -0.9136 -0.0494 -0.4035
vn -0.8586 -0.0021 -0.5126
vn -0.9977 0.0046 -0.0673
vn -0.9996 0.0195 -0.0204
vn -0.8484 0.0000 -0.5293
vn 0.5600 0.0946 0.8230
vn 0.8302 0.1222 0.5439
vn 0.8950 0.0093 0.4460
vn 0.6254 -0.0384 0.7793
vn -0.6507 0.0007 -0.7593
vn -0.6541 0.0031 -0.7564
vn 0.1960 0.0630 0.9786
vn 0.3101 -0.0808 0.9473
vn -0.4274 0.0010 -0.9040
vn -0.4070 0.0082 -0.9134
vn 0.0389 0.0394 0.9984
vn -0.0370 -0.0826 0.9959
vn 0.2517 0.0280 -0.9674
vn -0.1239 0.0106 -0.9922
vn -0.0589 0.0329 -0.9977
vn 0.2121 0.0268 -0.9769
vn -0.1799 0.0559 0.9821
vn -0.3558 -0.0140 0.9344
vn 0.6240 0.0386 -0.7805
vn 0.6029 -0.0186 -0.7976
vn -0.6457 0.0427 0.7624
vn -0.6523 0.0527 0.7561
vn 0.9033 0.0777 -0.4219
vn 0.9583 -0.0089 -0.2854
vn -0.9049 0.0209 0.4250
vn -0.8793 0.0561 0.4730
vn 0.9896 0.1306 0.0596
vn 0.9947 0.0281 0.0990
vn -0.8233 -0.0075 -0.5675
vn -0.9997 0.0228 0.0075
vn -0.9996 -0.0013 0.0276
vn -0.8422 -0.0119 -0.5390
vn 0.6338 0.0078 0.7734
vn 0.9187 -0.0169 0.3946
vn 0.9059 -0.0242 0.4227
vn 0.5579 0.0025 0.8298
vn -0.6605 0.0000 -0.7508
vn -0.6623 -0.0338 -0.7485
vn 0.3995 0.0037 0.9167
vn 0.3923 0.0441 0.9188
vn -0.3828 0.0002 -0.9238
vn -0.3908 -0.0454 -0.9193
vn -0.0395 0.0205 0.9990
vn -0.0084 -0.0035 0.9999
vn 0.2133 0.0267 -0.9766
vn -0.0099 0.0023 -0.9999
vn -0.0166 -0.0575 -0.9982
vn 0.3297 -0.0501 -0.9427
vn -0.5679 0.0181 0.8228
vn -0.5808 -0.0215 0.8137
vn 0.6040 0.0711 -0.7938
vn 0.6864 -0.0160 -0.7270
vn -0.7357 0.0531 0.6751
vn -0.7834 -0.0008 0.6215
vn 0.9552 0.0592 -0.2900
vn 0.9276 -0.0023 -0.3735
vn -0.8481 0.0675 0.5254
vn -0.8427 -0.0108 0.5382
vn 0.9990 0.0027 0.0446
vn 0.9979 -0.0231 -0.0597
vn 0.9006 -0.0757 0.4280
vn 0.9936 -0.0993 0.0534
vn 0.9899 0.1228 0.0703
vn 0.8486 0.1354 0.5113
vn -0.9934 0.0173 -0.1134
vn -0.9400 0.0318 0.3396
vn -0.9186 0.0580 0.3908
vn -0.9947 0.0441 -0.0928
vn 0.8860 -0.0598 -0.4598
vn 0.8780 0.1152 -0.4644
vn -0.7656 0.0407 0.6420
vn -0.7151 0.0891 0.6933
vn 0.5565 -0.0063 -0.8308
vn 0.5609 0.0778 -0.8242
vn -0.3812 0.0311 0.9239
vn -0.2290 0.1504 0.9617
vn 0.1844 0.0342 -0.9822
vn 0.1864 0.0269 -0.9821
vn -0.0287 0.0241 0.9993
vn 0.0157 0.1640 0.9863
vn -0.0709 0.0636 -0.9954
vn -0.3382 0.0818 -0.9375
vn -0.3889 0.0339 -0.9206
vn -0.1328 0.0114 -0.9911
vn 0.2518 0.0211 0.9675
vn 0.1861 0.1818 0.9655
vn -0.7035 0.0736 -0.7068
vn -0.6641 0.0419 -0.7465
vn 0.6912 -0.0256 0.7222
vn 0.5979 0.1649 0.7844
vn -0.8948 0.0350 -0.4450
vn -0.8638 0.0353 -0.5025
vn -0.9988 -0.0190 0.0452
vn -0.8903 -0.0151 -0.4550
vn 0.9323 -0.0382 0.3595
vn 0.5568 -0.0780 0.8270
vn -0.6716 -0.0625 -0.7383
vn 0.2728 -0.0817 0.9586
vn -0.4039 -0.0895 -0.9104
vn 0.0155 -0.0611 0.9980
vn -0.0491 -0.1153 -0.9921
vn 0.4131 -0.1410 -0.8997
vn -0.4570 -0.1121 0.8824
vn 0.8413 -0.1486 -0.5198
vn -0.7795 -0.1203 0.6147
vn 0.9678 -0.0756 -0.2400
vn -0.8908 -0.0835 0.4466
vn 0.9954 -0.0244 -0.0929
vn -0.9347 0.0263 -0.3544
vn -0.9937 -0.0121 -0.1118
vn 0.7263 -0.1863 0.6616
vn 0.9138 -0.1762 0.3659
vn -0.7418 0.0737 -0.6665
vn 0.3168 -0.1654 0.9340
vn -0.3179 0.0818 -0.9446
vn -0.0414 -0.1371 0.9897
vn 0.2641 0.0343 -0.9639
vn -0.0204 0.0638 -0.9977
vn -0.4070 -0.1173 0.9058
vn 0.6404 -0.0202 -0.7678
vn -0.7418 -0.0636 0.6675
vn 0.9127 -0.1000 -0.3960
vn -0.9511 -0.0267 0.3076
vn 0.9856 -0.1613 0.0505
usemtl None
s 1
f 2/1/1 1/2/2 16/3/3 15/4/4 14/5/5 13/6/6 12/7/7 11/8/8 10/9/9 9/10/10 8/11/11 7/12/12 6/13/13 5/14/14 4/15/15 3/16/16
f 18/17/17 19/18/18 20/19/19 21/20/20 22/21/21 23/22/22 24/23/23 25/24/24 26/25/25 27/26/26 28/27/27 29/28/28 30/29/29 31/30/30 32/31/31 17/32/32
f 158/33/33 145/34/34 29/35/28 28/36/27
f 159/37/35 146/38/36 22/39/21 21/40/20
f 145/34/34 147/41/37 30/42/29 29/35/28
f 146/38/36 148/43/38 23/44/22 22/39/21
f 147/41/37 149/45/39 31/46/30 30/42/29
f 148/43/38 150/47/40 24/48/23 23/44/22
f 149/45/39 151/49/41 32/50/31 31/46/30
f 150/47/40 152/51/42 25/52/24 24/48/23
f 160/53/43 153/54/44 18/55/17 17/56/32
f 151/49/41 160/53/43 17/56/32 32/50/31
f 152/51/42 154/57/45 26/58/25 25/52/24
f 153/54/44 155/59/46 19/60/18 18/55/17
f 154/61/45 156/62/47 27/63/26 26/64/25
f 155/59/46 157/65/48 20/66/19 19/60/18
f 156/62/47 158/33/33 28/36/27 27/63/26
f 157/65/48 159/37/35 21/40/20 20/66/19
f 125/67/49 127/68/50 36/69/51 48/70/52
f 124/71/53 126/72/54 34/73/55 47/74/56
f 123/75/57 125/67/49 48/70/52 46/76/58
f 122/77/59 124/71/53 47/74/56 45/78/60
f 121/79/61 123/75/57 46/76/58 43/80/62
f 120/81/63 122/82/59 45/83/60 42/84/64
f 119/85/65 128/86/66 44/87/67 41/88/68
f 128/86/66 121/79/61 43/80/62 44/87/67
f 118/89/69 120/81/63 42/84/64 40/90/70
f 117/91/71 119/85/65 41/88/68 39/92/72
f 116/93/73 118/89/69 40/90/70 38/94/74
f 115/95/75 117/91/71 39/92/72 37/96/76
f 114/97/77 116/93/73 38/94/74 35/98/78
f 113/99/79 115/95/75 37/96/76 33/100/80
f 127/68/50 114/97/77 35/98/78 36/69/51
f 126/72/54 113/99/79 33/100/80 34/73/55
f 112/101/81 98/102/82 63/103/83 61/104/84
f 111/105/85 97/106/86 62/107/87 60/108/88
f 110/109/89 112/101/81 61/104/84 59/110/90
f 109/111/91 111/105/85 60/108/88 58/112/92
f 108/113/93 110/109/89 59/110/90 57/114/94
f 107/115/95 109/116/91 58/117/92 56/118/96
f 106/119/97 99/120/98 64/121/99 55/122/100
f 99/120/98 108/113/93 57/114/94 64/121/99
f 105/123/101 107/115/95 56/118/96 54/124/102
f 104/125/103 106/119/97 55/122/100 53/126/104
f 103/127/105 105/123/101 54/124/102 52/128/106
f 102/129/107 104/125/103 53/126/104 51/130/108
f 101/131/109 103/127/105 52/128/106 50/132/110
f 100/133/111 102/129/107 51/130/108 49/134/112
f 98/102/82 101/131/109 50/132/110 63/103/83
f 97/106/86 100/133/111 49/134/112 62/107/87
f 129/135/113 132/136/114 68/137/115 65/138/116
f 130/139/117 133/140/118 69/141/119 66/142/120
f 132/136/114 134/143/121 70/144/122 68/137/115
f 133/140/118 135/145/123 71/146/124 69/141/119
f 134/143/121 136/147/125 72/148/126 70/144/122
f 135/145/123 137/149/127 73/150/128 71/146/124
f 136/147/125 138/151/129 74/152/130 72/148/126
f 137/149/127 139/153/131 75/154/132 73/150/128
f 131/155/133 140/156/134 76/157/135 67/158/136
f 138/151/129 131/155/133 67/158/136 74/152/130
f 139/153/131 141/159/137 77/160/138 75/154/132
f 140/156/134 142/161/139 78/162/140 76/157/135
f 141/163/137 143/164/141 79/165/142 77/166/138
f 142/161/139 144/167/143 80/168/144 78/162/140
f 143/164/141 129/135/113 65/138/116 79/165/142
f 144/167/143 130/139/117 66/142/120 80/168/144
f 61/104/84 63/103/83 95/169/145 93/170/146
f 60/108/88 62/107/87 94/171/147 92/172/148
f 59/110/90 61/104/84 93/170/146 91/173/149
f 58/112/92 60/108/88 92/172/148 90/174/150
f 57/114/94 59/110/90 91/173/149 89/175/151
f 56/118/96 58/117/92 90/176/150 88/177/152
f 55/122/100 64/121/99 96/178/153 87/179/154
f 64/121/99 57/114/94 89/175/151 96/178/153
f 54/124/102 56/118/96 88/177/152 86/180/155
f 53/126/104 55/122/100 87/179/154 85/181/156
f 52/128/106 54/124/102 86/180/155 84/182/157
f 51/130/108 53/126/104 85/181/156 83/183/158
f 50/132/110 52/128/106 84/182/157 82/184/159
f 49/134/112 51/130/108 83/183/158 81/185/160
f 63/103/83 50/132/110 82/184/159 95/169/145
f 62/107/87 49/134/112 81/185/160 94/171/147
f 34/73/55 33/100/80 100/186/111 97/187/86
f 36/69/51 35/98/78 101/188/109 98/189/82
f 33/100/80 37/96/76 102/190/107 100/186/111
f 35/98/78 38/94/74 103/191/105 101/188/109
f 37/96/76 39/92/72 104/192/103 102/190/107
f 38/94/74 40/90/70 105/193/101 103/191/105
f 39/92/72 41/88/68 106/194/97 104/192/103
f 40/90/70 42/84/64 107/195/95 105/193/101
f 44/87/67 43/80/62 108/196/93 99/197/98
f 41/88/68 44/87/67 99/197/98 106/194/97
f 42/84/64 45/83/60 109/198/91 107/195/95
f 43/80/62 46/76/58 110/199/89 108/196/93
f 45/78/60 47/74/56 111/200/85 109/201/91
f 46/76/58 48/70/52 112/202/81 110/199/89
f 47/74/56 34/73/55 97/187/86 111/200/85
f 48/70/52 36/69/51 98/189/82 112/202/81
f 65/138/116 68/137/115 113/203/79 126/204/54
f 66/142/120 69/141/119 114/205/77 127/206/50
f 68/137/115 70/144/122 115/207/75 113/203/79
f 69/141/119 71/146/124 116/208/73 114/205/77
f 70/144/122 72/148/126 117/209/71 115/207/75
f 71/146/124 73/150/128 118/210/69 116/208/73
f 72/148/126 74/152/130 119/211/65 117/209/71
f 73/150/128 75/154/132 120/212/63 118/210/69
f 67/158/136 76/157/135 121/213/61 128/214/66
f 74/152/130 67/158/136 128/214/66 119/211/65
f 75/154/132 77/160/138 122/215/59 120/212/63
f 76/157/135 78/162/140 123/216/57 121/213/61
f 77/166/138 79/165/142 124/217/53 122/218/59
f 78/162/140 80/168/144 125/219/49 123/216/57
f 79/165/142 65/138/116 126/204/54 124/217/53
f 80/168/144 66/142/120 127/206/50 125/219/49
f 176/220/161 162/221/162 130/222/117 144/223/143
f 175/224/163 161/225/164 129/226/113 143/227/141
f 174/228/165 176/220/161 144/223/143 142/229/139
f 173/230/166 175/224/163 143/227/141 141/231/137
f 172/232/167 174/228/165 142/229/139 140/233/134
f 171/234/168 173/235/166 141/236/137 139/237/131
f 170/238/169 163/239/170 131/240/133 138/241/129
f 163/239/170 172/232/167 140/233/134 131/240/133
f 169/242/171 171/234/168 139/237/131 137/243/127
f 168/244/172 170/238/169 138/241/129 136/245/125
f 167/246/173 169/242/171 137/243/127 135/247/123
f 166/248/174 168/244/172 136/245/125 134/249/121
f 165/250/175 167/246/173 135/247/123 133/251/118
f 164/252/176 166/248/174 134/249/121 132/253/114
f 162/221/162 165/250/175 133/251/118 130/222/117
f 161/225/164 164/252/176 132/253/114 129/226/113
f 93/254/146 95/255/145 159/37/35 157/65/48
f 92/256/148 94/257/147 158/33/33 156/62/47
f 91/258/149 93/254/146 157/65/48 155/59/46
f 90/259/150 92/256/148 156/62/47 154/61/45
f 89/260/151 91/258/149 155/59/46 153/54/44
f 88/261/152 90/262/150 154/57/45 152/51/42
f 87/263/154 96/264/153 160/53/43 151/49/41
f 96/264/153 89/260/151 153/54/44 160/53/43
f 86/265/155 88/261/152 152/51/42 150/47/40
f 85/266/156 87/263/154 151/49/41 149/45/39
f 84/267/157 86/265/155 150/47/40 148/43/38
f 83/268/158 85/266/156 149/45/39 147/41/37
f 82/269/159 84/267/157 148/43/38 146/38/36
f 81/270/160 83/268/158 147/41/37 145/34/34
f 95/255/145 82/269/159 146/38/36 159/37/35
f 94/257/147 81/270/160 145/34/34 158/33/33
f 12/271/7 13/272/6 164/252/176 161/225/164
f 5/273/14 6/274/13 165/250/175 162/221/162
f 13/272/6 14/275/5 166/248/174 164/252/176
f 6/274/13 7/276/12 167/246/173 165/250/175
f 14/275/5 15/277/4 168/244/172 166/248/174
f 7/276/12 8/278/11 169/242/171 167/246/173
f 15/277/4 16/279/3 170/238/169 168/244/172
f 8/278/11 9/280/10 171/234/168 169/242/171
f 1/281/2 2/282/1 172/232/167 163/239/170
f 16/279/3 1/281/2 163/239/170 170/238/169
f 9/280/10 10/283/9 173/235/166 171/234/168
f 2/282/1 3/284/16 174/228/165 172/232/167
f 10/285/9 11/286/8 175/224/163 173/230/166
f 3/284/16 4/287/15 176/220/161 174/228/165
f 11/286/8 12/271/7 161/225/164 175/224/163
f 4/287/15 5/273/14 162/221/162 176/220/161
