# 3ds Max Wavefront OBJ Exporter v0.97b - (c)2007 guruware
# File Created: 15.06.2019 13:55:57

mtllib column3.mtl

#
# object Column_3
#

v  93.5307 -7.1528 -19.0199
v  93.5307 -1.6784 -19.0199
v  77.2601 -1.6784 -19.0199
v  77.2601 -7.1528 -19.0199
v  93.5307 -7.1527 -35.2904
v  93.5307 -1.6784 -35.2904
v  77.2601 -7.1527 -35.2904
v  77.2601 -1.6784 -35.2904
v  79.9134 14.7751 -21.6732
v  79.9134 36.7031 -21.6732
v  79.9134 36.7031 -32.6371
v  79.9134 14.7751 -32.6371
v  90.8774 36.7031 -21.6732
v  90.8774 36.7031 -32.6371
v  90.8774 14.7751 -32.6371
v  90.8774 -1.6784 -21.6732
v  90.8774 14.7751 -21.6732
v  79.9134 -1.6784 -21.6732
v  90.8774 -1.6784 -32.6371
v  79.9134 -1.6784 -32.6371
# 20 vertices

vn 0.0000 -0.0000 1.0000
vn 1.0000 0.0000 -0.0000
vn 0.0000 0.0000 -1.0000
vn -1.0000 0.0000 -0.0000
vn 0.0000 1.0000 0.0000
# 5 vertex normals

vt 0.7506 0.7471 0.0000
vt 0.7506 0.9994 0.0000
vt 0.0006 0.9994 0.0000
vt 0.0006 0.7471 0.0000
vt 0.5000 0.0000 0.0000
vt 0.5000 1.0000 0.0000
vt 0.0000 1.0000 0.0000
vt 0.0000 0.0000 0.0000
vt 0.5000 0.5000 0.0000
vt 0.0000 0.5000 0.0000
vt 1.0000 0.0000 0.0000
vt 1.0000 1.0000 0.0000
vt 1.0000 0.2497 0.0000
vt 0.5000 0.2497 0.0000
vt 0.0000 0.2497 0.0000
vt 0.6296 0.8753 0.0000
vt 0.7519 0.9976 0.0000
vt 0.0019 0.9976 0.0000
vt 0.1242 0.8753 0.0000
# 19 texture coords

o Column_3
g Column_3
usemtl Stone_2
s off
f 1/1/1 2/2/1 3/3/1 
f 3/3/1 4/4/1 1/1/1 
f 5/1/2 6/2/2 2/3/2 
f 2/3/2 1/4/2 5/1/2 
f 7/4/3 8/3/3 6/2/3 
f 6/2/3 5/1/3 7/4/3 
usemtl Stone_1
f 9/5/4 10/6/4 11/7/4 
f 11/7/4 12/8/4 9/5/4 
f 13/9/5 14/6/5 11/7/5 
f 11/7/5 10/10/5 13/9/5 
f 12/11/3 11/12/3 14/6/3 
f 14/6/3 15/5/3 12/11/3 
f 16/13/1 17/12/1 9/6/1 
f 9/6/1 18/14/1 16/13/1 
f 19/14/2 15/6/2 17/7/2 
f 17/7/2 16/15/2 19/14/2 
f 20/13/3 12/12/3 15/6/3 
f 15/6/3 19/14/3 20/13/3 
usemtl Stone_2
f 8/2/4 7/1/4 4/4/4 
f 4/4/4 3/3/4 8/2/4 
usemtl Stone_1
f 12/7/4 20/15/4 18/14/4 
f 18/14/4 9/6/4 12/7/4 
usemtl Stone_2
f 18/16/5 3/17/5 2/18/5 
f 2/18/5 16/19/5 18/16/5 
usemtl Stone_1
f 17/11/1 13/12/1 10/6/1 
f 10/6/1 9/5/1 17/11/1 
usemtl Stone_2
f 16/16/5 2/17/5 6/18/5 
f 6/18/5 19/19/5 16/16/5 
usemtl Stone_1
f 15/5/2 14/6/2 13/7/2 
f 13/7/2 17/8/2 15/5/2 
usemtl Stone_2
f 19/16/5 6/17/5 8/18/5 
f 8/18/5 20/19/5 19/16/5 
f 20/16/5 8/17/5 3/18/5 
f 3/18/5 18/19/5 20/16/5 
# 34 faces

