# 3ds Max Wavefront OBJ Exporter v0.97b - (c)2007 guruware
# File Created: 15.06.2019 13:56:17

mtllib column_end.mtl

#
# object column_wall_end
#

v  75.1982 -7.1528 29.6283
v  75.1982 -1.6784 29.6283
v  56.0990 -1.6784 29.6283
v  56.0990 -7.1528 29.6283
v  75.1982 -7.1528 13.3578
v  75.1982 -1.6784 13.3578
v  56.0990 -7.1528 13.3578
v  56.0990 -1.6784 13.3578
v  56.0990 14.7751 26.9750
v  56.0990 36.7030 26.9750
v  56.0990 36.7030 16.0111
v  56.0990 14.7751 16.0111
v  72.5450 36.7030 26.9750
v  72.5450 36.7030 16.0111
v  72.5450 14.7751 16.0111
v  72.5450 -1.6784 26.9750
v  72.5450 14.7751 26.9750
v  56.0990 -1.6784 26.9722
v  72.5450 -1.6784 16.0111
v  56.0990 -1.6784 16.0107
v  56.0990 -7.1528 26.9722
v  56.0990 -7.1528 16.0107
# 22 vertices

vn 0.0000 -0.0000 1.0000
vn 1.0000 0.0000 -0.0000
vn 0.0000 0.0000 -1.0000
vn -1.0000 0.0000 -0.0000
vn 0.0000 1.0000 0.0000
vn -0.0001 -0.0001 1.0000
vn -0.0000 -0.0000 1.0000
# 7 vertex normals

vt 0.7506 0.7472 0.0000
vt 0.7506 0.9996 0.0000
vt 0.0006 0.9996 0.0000
vt 0.0006 0.7472 0.0000
vt 0.5000 0.0000 0.0000
vt 0.5000 1.0000 0.0000
vt 0.0000 1.0000 0.0000
vt 0.0000 0.0000 0.0000
vt 0.7520 0.4987 0.0000
vt 0.7520 0.9987 0.0000
vt 0.0020 0.9987 0.0000
vt 0.0020 0.4987 0.0000
vt 0.7500 0.0000 0.0000
vt 0.7500 1.0000 0.0000
vt 0.7497 0.2500 0.0000
vt 0.7497 1.0000 0.0000
vt 0.0000 0.2500 0.0000
vt 0.5000 0.2497 0.0000
vt 0.0000 0.2497 0.0000
vt 0.7497 0.2499 0.0000
vt 0.0000 0.2499 0.0000
vt 0.8774 0.9925 0.0000
vt 0.8774 0.7580 0.0000
vt 0.9912 0.7580 0.0000
vt 0.9912 0.9925 0.0000
vt 0.0006 0.8953 0.0000
vt 0.6464 0.8954 0.0000
vt 0.1229 0.8773 0.0000
vt 0.6283 0.8773 0.0000
vt 0.0006 0.8954 0.0000
vt 0.4078 0.9925 0.0000
vt 0.2941 0.9925 0.0000
vt 0.2941 0.7580 0.0000
vt 0.4078 0.7580 0.0000
# 34 texture coords

o column_wall_end
g column_wall_end
usemtl Stone_2
s off
f 1/1/1 2/2/1 3/3/1 
f 3/3/1 4/4/1 1/1/1 
f 5/1/2 6/2/2 2/3/2 
f 2/3/2 1/4/2 5/1/2 
f 7/4/3 8/3/3 6/2/3 
f 6/2/3 5/1/3 7/4/3 
usemtl Stone_1
f 9/5/4 10/6/4 11/7/4 
f 11/7/4 12/8/4 9/5/4 
f 13/9/5 14/10/5 11/11/5 
f 11/11/5 10/12/5 13/9/5 
f 12/13/3 11/14/3 14/7/3 
f 14/7/3 15/8/3 12/13/3 
f 16/15/6 17/16/7 9/7/7 
f 9/7/7 18/17/6 16/15/6 
f 19/18/2 15/6/2 17/7/2 
f 17/7/2 16/19/2 19/18/2 
f 20/20/3 12/16/3 15/7/3 
f 15/7/3 19/21/3 20/20/3 
usemtl Stone_2
f 18/22/4 21/23/4 4/24/4 
f 4/24/4 3/25/4 18/22/4 
usemtl Stone_1
f 12/7/4 20/19/4 18/18/4 
f 18/18/4 9/6/4 12/7/4 
usemtl Stone_2
f 18/26/5 3/3/5 2/2/5 
f 2/2/5 16/27/5 18/26/5 
usemtl Stone_1
f 17/13/7 13/14/1 10/7/1 
f 10/7/1 9/8/7 17/13/7 
usemtl Stone_2
f 16/28/5 2/3/5 6/2/5 
f 6/2/5 19/29/5 16/28/5 
usemtl Stone_1
f 15/5/2 14/6/2 13/7/2 
f 13/7/2 17/8/2 15/5/2 
usemtl Stone_2
f 19/27/5 6/2/5 8/3/5 
f 8/3/5 20/30/5 19/27/5 
f 20/31/4 8/32/4 7/33/4 
f 7/33/4 22/34/4 20/31/4 
f 18/22/4 20/31/4 22/34/4 
f 22/34/4 21/23/4 18/22/4 
# 36 faces

