# 3ds Max Wavefront OBJ Exporter v0.97b - (c)2007 guruware
# File Created: 15.06.2019 13:56:34

mtllib corner.mtl

#
# object corner_full
#

v  -67.2454 -7.1528 -25.1037
v  -67.2454 14.7752 -25.1037
v  -61.7634 14.7752 -25.1037
v  -61.7634 -7.1528 -25.1037
v  -67.2454 -7.1528 -19.6218
v  -67.2454 14.7752 -19.6218
v  -67.2454 36.7030 -19.6217
v  -67.2454 36.7030 -25.1037
v  -61.7634 36.7030 -25.1037
v  -61.7634 -7.1528 -19.6218
v  -61.7634 14.7751 -19.6218
v  -61.7634 36.7030 -19.6217
# 12 vertices

vn 0.0000 0.0000 -1.0000
vn -1.0000 0.0000 0.0000
vn -0.0000 -0.0000 1.0000
vn 1.0000 -0.0000 -0.0000
vn 0.0000 1.0000 0.0000
# 5 vertex normals

vt 0.2500 0.0000 0.0000
vt 0.2500 1.0000 0.0000
vt 0.0000 1.0000 0.0000
vt 0.0000 0.0000 0.0000
vt 0.2485 0.7509 0.0000
vt 0.2485 0.9971 0.0000
vt 0.0023 0.9971 0.0000
vt 0.0023 0.7509 0.0000
# 8 texture coords

o corner_full
g corner_full
usemtl Stone_3
s off
f 1/1/1 2/2/1 3/3/1 
f 3/3/1 4/4/1 1/1/1 
f 5/1/2 6/2/2 2/3/2 
f 2/3/2 1/4/2 5/1/2 
f 6/1/2 7/2/2 8/3/2 
f 8/3/2 2/4/2 6/1/2 
f 2/1/1 8/2/1 9/3/1 
f 9/3/1 3/4/1 2/1/1 
f 10/1/3 11/2/3 6/3/3 
f 6/3/3 5/4/3 10/1/3 
f 4/1/4 3/2/4 11/3/4 
f 11/3/4 10/4/4 4/1/4 
f 12/5/5 9/6/5 8/7/5 
f 8/7/5 7/8/5 12/5/5 
f 11/1/3 12/2/3 7/3/3 
f 7/3/3 6/4/3 11/1/3 
f 3/1/4 9/2/4 12/3/4 
f 12/3/4 11/4/4 3/1/4 
# 18 faces

