# 3ds Max Wavefront OBJ Exporter v0.97b - (c)2007 guruware
# File Created: 15.06.2019 13:57:27

mtllib crypt_full.mtl

#
# object crypt_top
#

v  59.1308 2.3055 -24.8137
v  59.1308 5.0734 -24.8137
v  19.0914 5.0734 -24.8137
v  19.0914 2.3055 -24.8137
v  59.1308 2.3055 -42.5263
v  59.1308 5.0734 -42.5263
v  19.0914 2.3055 -42.5263
v  19.0914 5.0734 -42.5263
v  57.6617 5.9067 -26.2829
v  57.6617 5.9067 -41.0571
v  20.5606 5.9067 -41.0571
v  20.5606 5.9067 -26.2829
v  57.6617 5.0734 -26.2829
v  20.5606 5.0734 -26.2829
v  57.6617 5.0734 -41.0571
v  20.5606 5.0734 -41.0571
# 16 vertices

vn 0.0000 -0.0000 1.0000
vn 1.0000 0.0000 -0.0000
vn 0.0000 0.0000 -1.0000
vn -1.0000 0.0000 -0.0000
vn 0.0000 1.0000 0.0000
vn 0.0000 -1.0000 -0.0000
# 6 vertex normals

vt 0.9012 0.4694 0.0000
vt 0.9012 0.5295 0.0000
vt 0.0328 0.5295 0.0000
vt 0.0328 0.4694 0.0000
vt 0.4745 0.3819 0.0000
vt 0.4745 0.4516 0.0000
vt 0.0286 0.4516 0.0000
vt 0.0286 0.3819 0.0000
vt 0.9522 0.5929 0.0000
vt 0.9522 0.9534 0.0000
vt 0.0469 0.9534 0.0000
vt 0.0469 0.5929 0.0000
vt 0.5699 0.0105 0.0000
vt 0.5699 0.2548 0.0000
vt 0.0177 0.2548 0.0000
vt 0.0177 0.0105 0.0000
vt 0.9881 0.5571 0.0000
vt 0.0111 0.5571 0.0000
vt 0.9881 0.9893 0.0000
vt 0.0111 0.9893 0.0000
vt 0.9065 0.3431 0.0000
vt 0.9065 0.3627 0.0000
vt 0.0309 0.3627 0.0000
vt 0.0309 0.3431 0.0000
vt 0.4772 0.2739 0.0000
vt 0.4772 0.2994 0.0000
vt 0.0256 0.2994 0.0000
vt 0.0256 0.2739 0.0000
vt 0.0309 0.3234 0.0000
vt 0.9065 0.3234 0.0000
# 30 texture coords

o crypt_top
g crypt_top
usemtl Floor_1
s off
f 1/1/1 2/2/1 3/3/1 
f 3/3/1 4/4/1 1/1/1 
f 5/5/2 6/6/2 2/7/2 
f 2/7/2 1/8/2 5/5/2 
f 7/4/3 8/3/3 6/2/3 
f 6/2/3 5/1/3 7/4/3 
f 4/8/4 3/7/4 8/6/4 
f 8/6/4 7/5/4 4/8/4 
f 9/9/5 10/10/5 11/11/5 
f 11/11/5 12/12/5 9/9/5 
f 5/13/6 1/14/6 4/15/6 
f 4/15/6 7/16/6 5/13/6 
f 2/17/5 13/9/5 14/12/5 
f 14/12/5 3/18/5 2/17/5 
f 6/19/5 15/10/5 13/9/5 
f 13/9/5 2/17/5 6/19/5 
f 8/20/5 16/11/5 15/10/5 
f 15/10/5 6/19/5 8/20/5 
f 3/18/5 14/12/5 16/11/5 
f 16/11/5 8/20/5 3/18/5 
f 13/21/1 9/22/1 12/23/1 
f 12/23/1 14/24/1 13/21/1 
f 15/25/2 10/26/2 9/27/2 
f 9/27/2 13/28/2 15/25/2 
f 16/29/3 11/24/3 10/21/3 
f 10/21/3 15/30/3 16/29/3 
f 14/28/4 12/27/4 11/26/4 
f 11/26/4 16/25/4 14/28/4 
# 28 faces

#
# object crypt
#

v  59.9426 -7.1527 -23.8024
v  59.9426 -4.9600 -23.8024
v  18.2796 -4.9600 -23.8024
v  18.2796 -7.1527 -23.8024
v  59.9426 -7.1527 -43.5376
v  59.9426 -4.9600 -43.5376
v  18.2796 -7.1527 -43.5376
v  18.2796 -4.9600 -43.5376
v  57.1139 -5.8151 -26.6311
v  57.1139 -5.8151 -40.7089
v  21.1083 -5.8151 -40.7089
v  21.1083 -5.8151 -26.6311
v  58.6708 -4.9600 -25.0743
v  19.5514 -4.9600 -25.0743
v  58.6708 -4.9600 -42.2657
v  19.5514 -4.9600 -42.2657
v  57.3551 -3.6443 -25.7102
v  57.3551 1.1360 -25.7102
v  20.8671 1.1360 -25.7102
v  20.8671 -3.6443 -25.7102
v  58.0349 -3.6443 -40.9501
v  58.0349 1.1360 -40.9501
v  58.0349 1.1360 -26.3899
v  58.0349 -3.6443 -26.3899
v  20.8671 -3.6443 -41.6298
v  20.8671 1.1360 -41.6298
v  57.3551 1.1360 -41.6298
v  57.3551 -3.6443 -41.6298
v  20.1873 -3.6443 -26.3899
v  20.1873 1.1360 -26.3899
v  20.1873 1.1360 -40.9501
v  20.1873 -3.6443 -40.9501
v  58.6708 2.4517 -25.0743
v  57.1139 2.4517 -26.6311
v  21.1083 2.4517 -26.6311
v  19.5514 2.4517 -25.0743
v  58.6708 2.4517 -42.2657
v  57.1139 2.4517 -40.7089
v  19.5514 2.4517 -42.2657
v  21.1083 2.4517 -40.7089
v  57.3551 -3.6443 -25.0743
v  20.8671 -3.6443 -25.0743
v  57.3551 1.1360 -25.0743
v  20.8671 1.1360 -25.0743
v  58.6708 -3.6443 -40.9501
v  58.6708 -3.6443 -26.3899
v  58.6708 1.1360 -40.9501
v  58.6708 1.1360 -26.3899
v  20.8671 -3.6443 -42.2657
v  57.3551 -3.6443 -42.2657
v  20.8671 1.1360 -42.2657
v  57.3551 1.1360 -42.2657
v  19.5514 -3.6443 -26.3899
v  19.5514 -3.6443 -40.9501
v  19.5514 1.1360 -26.3899
v  19.5514 1.1360 -40.9501
# 56 vertices

vn 0.0000 -0.0000 1.0000
vn 1.0000 0.0000 -0.0000
vn 0.0000 0.0000 -1.0000
vn -1.0000 0.0000 -0.0000
vn 0.0000 1.0000 0.0000
vn 0.0000 -1.0000 -0.0000
# 6 vertex normals

vt 0.7831 0.2501 0.0000
vt 0.7831 0.2873 0.0000
vt 0.0752 0.2873 0.0000
vt 0.0752 0.2501 0.0000
vt 0.9201 0.6189 0.0000
vt 0.8586 0.6189 0.0000
vt 0.8586 0.0658 0.0000
vt 0.9201 0.0658 0.0000
vt 0.7776 0.0764 0.0000
vt 0.7776 0.1136 0.0000
vt 0.0697 0.1136 0.0000
vt 0.0697 0.0764 0.0000
vt 0.9815 0.0658 0.0000
vt 0.9815 0.6189 0.0000
vt 0.9850 0.6979 0.0000
vt 0.9850 0.9625 0.0000
vt 0.7203 0.9625 0.0000
vt 0.7203 0.6979 0.0000
vt 0.7079 0.6647 0.0000
vt 0.6863 0.6863 0.0000
vt 0.0216 0.6863 0.0000
vt 0.0000 0.6647 0.0000
vt 0.7079 1.0000 0.0000
vt 0.6863 0.9784 0.0000
vt 0.0000 1.0000 0.0000
vt 0.0216 0.9784 0.0000
vt 0.7995 0.2236 0.0000
vt 0.7979 0.3208 0.0000
vt 0.0574 0.3227 0.0000
vt 0.0594 0.2233 0.0000
vt 0.5369 0.7635 0.0000
vt 0.5388 0.8997 0.0000
vt 0.1140 0.8996 0.0000
vt 0.1134 0.7590 0.0000
vt 0.7995 0.0455 0.0000
vt 0.7980 0.1426 0.0000
vt 0.0575 0.1448 0.0000
vt 0.0595 0.0454 0.0000
vt 0.4335 0.4663 0.0000
vt 0.4351 0.5737 0.0000
vt 0.1002 0.5740 0.0000
vt 0.0996 0.4631 0.0000
vt 0.6647 0.3726 0.0000
vt 0.6382 0.3990 0.0000
vt 0.0265 0.3990 0.0000
vt 0.0000 0.3726 0.0000
vt 0.6647 0.6647 0.0000
vt 0.6382 0.6382 0.0000
vt 0.0265 0.6382 0.0000
vt 0.8408 0.1860 0.0000
vt 0.8123 0.2106 0.0000
vt 0.0445 0.2114 0.0000
vt 0.0129 0.1823 0.0000
vt 0.8389 0.3602 0.0000
vt 0.8126 0.3327 0.0000
vt 0.0197 0.3602 0.0000
vt 0.0442 0.3365 0.0000
vt 0.5946 0.7084 0.0000
vt 0.5544 0.7444 0.0000
vt 0.0915 0.7419 0.0000
vt 0.0514 0.7002 0.0000
vt 0.5960 0.9511 0.0000
vt 0.5600 0.9164 0.0000
vt 0.0501 0.9637 0.0000
vt 0.0957 0.9195 0.0000
vt 0.8408 0.0078 0.0000
vt 0.8123 0.0324 0.0000
vt 0.0445 0.0335 0.0000
vt 0.0129 0.0044 0.0000
vt 0.8390 0.1820 0.0000
vt 0.8126 0.1545 0.0000
vt 0.0197 0.1823 0.0000
vt 0.0442 0.1586 0.0000
vt 0.4790 0.4228 0.0000
vt 0.4473 0.4512 0.0000
vt 0.0823 0.4497 0.0000
vt 0.0506 0.4168 0.0000
vt 0.4803 0.6142 0.0000
vt 0.4519 0.5868 0.0000
vt 0.0499 0.6246 0.0000
vt 0.0858 0.5897 0.0000
# 81 texture coords

o crypt
g crypt
usemtl Floor_1
s off
f 17/31/7 18/32/7 19/33/7 
f 19/33/7 20/34/7 17/31/7 
f 21/35/8 22/36/8 18/37/8 
f 18/37/8 17/38/8 21/35/8 
f 23/39/9 24/40/9 22/41/9 
f 22/41/9 21/42/9 23/39/9 
f 20/43/10 19/38/10 24/35/10 
f 24/35/10 23/44/10 20/43/10 
f 25/45/11 26/46/11 27/47/11 
f 27/47/11 28/48/11 25/45/11 
f 18/49/11 29/50/11 30/51/11 
f 30/51/11 19/52/11 18/49/11 
f 22/53/11 31/54/11 29/50/11 
f 29/50/11 18/49/11 22/53/11 
f 24/55/11 32/56/11 31/54/11 
f 31/54/11 22/53/11 24/55/11 
f 19/52/11 30/51/11 32/56/11 
f 32/56/11 24/55/11 19/52/11 
f 33/57/7 34/58/7 35/59/7 
f 35/59/7 36/60/7 33/57/7 
f 37/61/8 38/62/8 39/63/8 
f 39/63/8 40/64/8 37/61/8 
f 41/65/9 42/66/9 43/67/9 
f 43/67/9 44/68/9 41/65/9 
f 45/69/10 46/70/10 47/71/10 
f 47/71/10 48/72/10 45/69/10 
f 49/73/11 50/74/11 51/75/11 
f 51/75/11 52/76/11 49/73/11 
f 53/77/11 54/78/11 50/74/11 
f 50/74/11 49/73/11 53/77/11 
f 55/52/11 56/79/11 54/78/11 
f 54/78/11 53/77/11 55/52/11 
f 52/76/11 51/75/11 56/79/11 
f 56/79/11 55/52/11 52/76/11 
f 50/45/9 25/46/9 28/47/9 
f 28/47/9 51/48/9 50/45/9 
f 54/45/10 26/46/10 25/47/10 
f 25/47/10 50/48/10 54/45/10 
f 56/45/7 27/46/7 26/47/7 
f 26/47/7 54/48/7 56/45/7 
f 51/45/8 28/46/8 27/47/8 
f 27/47/8 56/48/8 51/45/8 
f 29/80/7 57/81/7 58/82/7 
f 58/82/7 30/83/7 29/80/7 
f 49/84/7 59/85/7 57/81/7 
f 57/81/7 29/80/7 49/84/7 
f 52/86/7 60/87/7 59/85/7 
f 59/85/7 49/84/7 52/86/7 
f 30/83/7 58/82/7 60/87/7 
f 60/87/7 52/86/7 30/83/7 
f 31/88/8 61/89/8 62/90/8 
f 62/90/8 29/91/8 31/88/8 
f 53/92/8 63/93/8 61/89/8 
f 61/89/8 31/88/8 53/92/8 
f 49/94/8 64/95/8 63/93/8 
f 63/93/8 53/92/8 49/94/8 
f 29/91/8 62/90/8 64/95/8 
f 64/95/8 49/94/8 29/91/8 
f 32/96/9 65/97/9 66/98/9 
f 66/98/9 31/99/9 32/96/9 
f 55/100/9 67/101/9 65/97/9 
f 65/97/9 32/96/9 55/100/9 
f 53/102/9 68/103/9 67/101/9 
f 67/101/9 55/100/9 53/102/9 
f 31/99/9 66/98/9 68/103/9 
f 68/103/9 53/102/9 31/99/9 
f 30/104/10 69/105/10 70/106/10 
f 70/106/10 32/107/10 30/104/10 
f 52/108/10 71/109/10 69/105/10 
f 69/105/10 30/104/10 52/108/10 
f 55/110/10 72/111/10 71/109/10 
f 71/109/10 52/108/10 55/110/10 
f 32/107/10 70/106/10 72/111/10 
f 72/111/10 55/110/10 32/107/10 
f 57/81/11 33/57/11 36/60/11 
f 36/60/11 58/82/11 57/81/11 
f 59/85/10 34/58/10 33/57/10 
f 33/57/10 57/81/10 59/85/10 
f 60/87/12 35/59/12 34/58/12 
f 34/58/12 59/85/12 60/87/12 
f 58/82/8 36/60/8 35/59/8 
f 35/59/8 60/87/8 58/82/8 
f 61/89/11 37/61/11 40/64/11 
f 40/64/11 62/90/11 61/89/11 
f 63/93/7 38/62/7 37/61/7 
f 37/61/7 61/89/7 63/93/7 
f 64/95/12 39/63/12 38/62/12 
f 38/62/12 63/93/12 64/95/12 
f 62/90/9 40/64/9 39/63/9 
f 39/63/9 64/95/9 62/90/9 
f 65/97/11 41/65/11 44/68/11 
f 44/68/11 66/98/11 65/97/11 
f 67/101/8 42/66/8 41/65/8 
f 41/65/8 65/97/8 67/101/8 
f 68/103/12 43/67/12 42/66/12 
f 42/66/12 67/101/12 68/103/12 
f 66/98/10 44/68/10 43/67/10 
f 43/67/10 68/103/10 66/98/10 
f 69/105/11 45/69/11 48/72/11 
f 48/72/11 70/106/11 69/105/11 
f 71/109/9 46/70/9 45/69/9 
f 45/69/9 69/105/9 71/109/9 
f 72/111/12 47/71/12 46/70/12 
f 46/70/12 71/109/12 72/111/12 
f 70/106/7 48/72/7 47/71/7 
f 47/71/7 72/111/7 70/106/7 
# 106 faces

