# 3ds Max Wavefront OBJ Exporter v0.97b - (c)2007 guruware
# File Created: 15.06.2019 15:40:29

mtllib Stairs.mtl

#
# object stairs
#

v  29.9722 -4.4141 -75.3936
v  29.9722 -7.1527 -80.8708
v  29.9722 -5.7834 -75.3936
v  -35.8115 -4.4141 -75.3936
v  -35.8115 -7.1527 -80.8708
v  -35.8115 -5.7834 -75.3936
v  29.9722 -3.0448 -78.1322
v  29.9722 -4.4141 -78.1322
v  29.9722 -5.7834 -72.6549
v  -35.8115 -5.7834 -72.6549
v  -35.8115 -3.0448 -78.1322
v  -35.8115 -1.6755 -78.1322
v  -35.8115 -1.6755 -80.8708
v  -13.8836 -3.0448 -78.1322
v  -13.8836 -1.6755 -78.1322
v  29.9722 -1.6755 -80.8708
v  29.9722 -1.6755 -78.1322
v  -13.8836 -1.6755 -80.8708
v  -35.8115 -3.0448 -75.3936
v  -35.8115 -4.4141 -78.1322
v  -13.8836 -4.4141 -75.3936
v  -13.8836 -3.0448 -75.3936
v  29.9722 -3.0448 -75.3936
v  -35.8115 -4.4141 -72.6549
v  -13.8836 -5.7834 -72.6549
v  -13.8836 -4.4141 -72.6549
v  29.9722 -4.4141 -72.6549
v  -35.8115 -7.1527 -69.9163
v  -35.8115 -5.7834 -69.9163
v  -13.8836 -7.1527 -69.9163
v  -13.8836 -5.7834 -69.9163
v  29.9722 -5.7834 -69.9163
v  29.9722 -7.1527 -69.9163
v  8.0443 -3.0448 -78.1322
v  8.0443 -1.6755 -78.1322
v  8.0443 -1.6755 -80.8708
v  8.0443 -4.4141 -75.3936
v  8.0443 -3.0448 -75.3936
v  8.0443 -5.7834 -72.6549
v  8.0443 -4.4141 -72.6549
v  8.0443 -7.1527 -69.9163
v  8.0443 -5.7834 -69.9163
# 42 vertices

vn -1.0000 0.0000 -0.0000
vn 1.0000 -0.0000 0.0000
vn -0.0000 -0.0000 1.0000
vn -0.0000 1.0000 0.0000
# 4 vertex normals

vt 0.5000 0.2500 0.0000
vt 0.0000 0.0000 0.0000
vt 0.5000 0.1250 0.0000
vt 0.2500 0.3750 0.0000
vt 0.2500 0.2500 0.0000
vt 0.7500 0.1250 0.0000
vt 0.2500 0.5000 0.0000
vt 0.0000 0.5000 0.0000
vt 0.0000 0.9376 0.0000
vt 1.0000 0.9376 0.0000
vt 1.0000 1.0000 0.0000
vt 0.0000 1.0000 0.0000
vt 1.0000 0.6253 0.0000
vt 0.0000 0.6253 0.0000
vt 0.0000 0.5004 0.0000
vt 1.0000 0.5004 0.0000
vt 0.5000 0.3750 0.0000
vt 1.0000 0.8751 0.0000
vt 0.0000 0.8751 0.0000
vt 0.0000 0.7502 0.0000
vt 1.0000 0.7502 0.0000
vt 0.7500 0.2500 0.0000
vt 1.0000 0.0000 0.0000
vt 1.0000 0.1250 0.0000
# 24 texture coords

o stairs
g stairs
usemtl Stone_2
s off
f 1/1/1 2/2/1 3/3/1 
f 4/1/1 5/2/1 6/3/1 
f 7/4/1 2/2/1 8/5/1 
f 3/3/1 2/2/1 9/6/1 
f 10/6/2 5/2/2 6/3/2 
f 8/5/1 2/2/1 1/1/1 
f 11/4/1 12/7/1 13/8/1 
f 13/8/1 5/2/1 11/4/1 
f 11/9/3 14/10/3 15/11/3 
f 15/11/3 12/12/3 11/9/3 
f 2/2/2 16/8/2 17/7/2 
f 17/7/2 7/4/2 2/2/2 
f 12/13/4 15/14/4 18/15/4 
f 18/15/4 13/16/4 12/13/4 
f 4/1/1 19/17/1 11/4/1 
f 11/4/1 20/5/1 4/1/1 
f 4/9/3 21/10/3 22/11/3 
f 22/11/3 19/12/3 4/9/3 
f 8/5/2 7/4/2 23/17/2 
f 23/17/2 1/1/2 8/5/2 
f 19/18/4 22/19/4 14/20/4 
f 14/20/4 11/21/4 19/18/4 
f 10/6/1 24/22/1 4/1/1 
f 4/1/1 6/3/1 10/6/1 
f 10/9/3 25/10/3 26/11/3 
f 26/11/3 24/12/3 10/9/3 
f 3/3/2 1/1/2 27/22/2 
f 27/22/2 9/6/2 3/3/2 
f 24/21/4 26/20/4 21/14/4 
f 21/14/4 4/13/4 24/21/4 
f 28/23/1 29/24/1 10/6/1 
f 10/6/1 5/2/1 28/23/1 
f 28/9/3 30/10/3 31/11/3 
f 31/11/3 29/12/3 28/9/3 
f 2/2/2 9/6/2 32/24/2 
f 32/24/2 33/23/2 2/2/2 
f 29/11/4 31/12/4 25/19/4 
f 25/19/4 10/18/4 29/11/4 
f 11/4/1 5/2/1 20/5/1 
f 20/5/1 5/2/1 4/1/1 
f 14/9/3 34/10/3 35/11/3 
f 35/11/3 15/12/3 14/9/3 
f 34/9/3 7/10/3 17/11/3 
f 17/11/3 35/12/3 34/9/3 
f 15/13/4 35/14/4 36/15/4 
f 36/15/4 18/16/4 15/13/4 
f 35/13/4 17/14/4 16/15/4 
f 16/15/4 36/16/4 35/13/4 
f 21/9/3 37/10/3 38/11/3 
f 38/11/3 22/12/3 21/9/3 
f 37/9/3 1/10/3 23/11/3 
f 23/11/3 38/12/3 37/9/3 
f 22/18/4 38/19/4 34/20/4 
f 34/20/4 14/21/4 22/18/4 
f 38/18/4 23/19/4 7/20/4 
f 7/20/4 34/21/4 38/18/4 
f 25/9/3 39/10/3 40/11/3 
f 40/11/3 26/12/3 25/9/3 
f 39/9/3 9/10/3 27/11/3 
f 27/11/3 40/12/3 39/9/3 
f 26/11/4 40/12/4 37/19/4 
f 37/19/4 21/18/4 26/11/4 
f 40/11/4 27/12/4 1/19/4 
f 1/19/4 37/18/4 40/11/4 
f 30/9/3 41/10/3 42/11/3 
f 42/11/3 31/12/3 30/9/3 
f 41/9/3 33/10/3 32/11/3 
f 32/11/3 42/12/3 41/9/3 
f 31/21/4 42/20/4 39/14/4 
f 39/14/4 25/13/4 31/21/4 
f 42/21/4 32/20/4 9/14/4 
f 9/14/4 39/13/4 42/21/4 
# 72 faces

