# 3ds Max Wavefront OBJ Exporter v0.97b - (c)2007 guruware
# File Created: 15.06.2019 15:41:58

mtllib Wall2.mtl

#
# object wall_top
#

v  -39.1604 24.6177 -29.1591
v  -17.2325 24.6177 -29.1591
v  -17.2325 24.6177 -35.7375
v  -39.1604 24.6177 -35.7375
v  -39.1604 36.7031 -29.1591
v  -17.2325 36.7031 -29.1591
v  -17.2325 36.7031 -35.7375
v  -39.1604 36.7031 -35.7375
# 8 vertices

vn 0.0000 1.0000 0.0000
vn -0.0000 0.0000 -1.0000
vn 0.0000 0.0000 1.0000
vn 1.0000 -0.0000 -0.0000
vn -1.0000 0.0000 0.0000
# 5 vertex normals

vt 0.0000 0.7000 0.0000
vt 1.0000 0.7000 0.0000
vt 1.0000 1.0000 0.0000
vt 0.0000 1.0000 0.0000
vt 1.0000 0.4489 0.0000
vt 0.0000 0.4489 0.0000
vt 0.3015 0.4478 0.0000
vt 0.6017 0.4478 0.0000
vt 0.6017 0.9995 0.0000
vt 0.3015 0.9995 0.0000
vt 0.0005 0.9995 0.0000
vt 0.3008 0.9995 0.0000
vt 0.3008 0.4478 0.0000
vt 0.0005 0.4478 0.0000
# 14 texture coords

o wall_top
g wall_top
usemtl Stone_1
s off
f 1/1/1 2/2/1 3/3/1 
f 3/3/1 4/4/1 1/1/1 
f 5/1/1 6/2/1 7/3/1 
f 7/3/1 8/4/1 5/1/1 
f 4/5/2 8/3/2 7/4/2 
f 7/4/2 3/6/2 4/5/2 
f 2/5/3 6/3/3 5/4/3 
f 5/4/3 1/6/3 2/5/3 
f 2/7/4 3/8/4 7/9/4 
f 7/9/4 6/10/4 2/7/4 
f 5/11/5 8/12/5 4/13/5 
f 4/13/5 1/14/5 5/11/5 
# 12 faces

