# 3ds Max Wavefront OBJ Exporter v0.97b - (c)2007 guruware
# File Created: 15.06.2019 08:26:04

mtllib wall1.mtl

#
# object big_column
#

v  -0.0758 2.1010 12.5612
v  -0.0758 17.2237 12.5613
v  -15.1984 17.2237 12.5613
v  -15.1984 2.1010 12.5612
v  -0.0758 2.1010 -2.5614
v  -0.0758 17.2237 -2.5614
v  -15.1984 2.1010 -2.5614
v  -15.1984 17.2237 -2.5614
v  -15.1984 32.3464 12.5613
v  -15.1984 32.3464 -2.5614
v  -0.0758 32.3464 12.5613
v  -0.0758 32.3464 -2.5614
# 12 vertices

vn 0.0000 0.0000 1.0000
vn 1.0000 0.0000 -0.0000
vn 0.0000 0.0000 -1.0000
vn -1.0000 0.0000 -0.0000
vn 0.0000 1.0000 -0.0000
vn 0.0000 -1.0000 -0.0000
# 6 vertex normals

vt 1.0000 0.0000 0.0000
vt 1.0000 1.0000 0.0000
vt 0.0000 1.0000 0.0000
vt 0.0000 0.0000 0.0000
# 4 texture coords

o big_column
g big_column
usemtl wall1_Stone_2
s off
f 1/1/1 2/2/1 3/3/1 
f 3/3/1 4/4/1 1/1/1 
f 5/1/2 6/2/2 2/3/2 
f 2/3/2 1/4/2 5/1/2 
f 7/1/3 8/2/3 6/3/3 
f 6/3/3 5/4/3 7/1/3 
f 3/1/4 9/2/4 10/3/4 
f 10/3/4 8/4/4 3/1/4 
f 11/1/5 12/2/5 10/3/5 
f 10/3/5 9/4/5 11/1/5 
f 5/1/6 1/2/6 4/3/6 
f 4/3/6 7/4/6 5/1/6 
f 2/1/1 11/2/1 9/3/1 
f 9/3/1 3/4/1 2/1/1 
f 6/1/2 12/2/2 11/3/2 
f 11/3/2 2/4/2 6/1/2 
f 8/1/3 10/2/3 12/3/3 
f 12/3/3 6/4/3 8/1/3 
f 8/3/4 7/4/4 4/1/4 
f 4/1/4 3/2/4 8/3/4 
# 20 faces

